<svg width="331" height="231" viewBox="0 0 331 231" fill="none" xmlns="http://www.w3.org/2000/svg">
<path fill-rule="evenodd" clip-rule="evenodd" d="M0.107651 1.9375H26.01L36.2522 42.5352L47.9045 1.9375H73.8069V110H54.6584V78.0117L55.5491 27.4688L41.3733 74.375H31.0569L18.3655 29.4727L19.2561 78.0117V110H0.107651V1.9375ZM155.955 43.0547V68.8828C155.955 75.8594 155.139 82.0195 153.506 87.3633C151.923 92.6576 149.622 97.0859 146.604 100.648C143.585 104.26 139.899 106.982 135.545 108.812C131.191 110.643 126.292 111.559 120.85 111.559C115.456 111.559 110.583 110.643 106.229 108.812C101.874 106.982 98.1882 104.26 95.17 100.648C92.1023 97.0859 89.7273 92.6576 88.045 87.3633C86.4122 82.0195 85.5958 75.8594 85.5958 68.8828V43.0547C85.5958 36.0781 86.4122 29.9427 88.045 24.6484C89.6778 19.3047 92.0281 14.8268 95.0958 11.2148C98.114 7.65234 101.775 4.95573 106.08 3.125C110.434 1.29427 115.308 0.378906 120.701 0.378906C126.144 0.378906 131.042 1.29427 135.397 3.125C139.751 4.95573 143.462 7.65234 146.529 11.2148C149.548 14.8268 151.873 19.3047 153.506 24.6484C155.139 29.9427 155.955 36.0781 155.955 43.0547ZM106.377 56.4883V59.9766L135.174 38.5273C135.075 34.4701 134.63 31.0065 133.838 28.1367C133.096 25.2174 131.982 22.8919 130.498 21.1602C129.36 19.7747 127.95 18.7604 126.268 18.1172C124.635 17.4245 122.779 17.0781 120.701 17.0781C118.376 17.0781 116.322 17.5234 114.541 18.4141C112.809 19.2552 111.35 20.5417 110.162 22.2734C108.876 24.1042 107.911 26.4792 107.268 29.3984C106.674 32.3177 106.377 35.7812 106.377 39.7891V51.7383V56.4883ZM134.209 82.4648C134.852 79.4961 135.174 76.0078 135.174 72V59.457V55.8945V52.5547L106.377 73.9297C106.476 77.1953 106.798 80.0898 107.342 82.6133C107.936 85.1367 108.752 87.2396 109.791 88.9219C110.979 90.9505 112.488 92.4596 114.318 93.4492C116.149 94.4388 118.326 94.9336 120.85 94.9336C123.175 94.9336 125.229 94.513 127.01 93.6719C128.791 92.7812 130.275 91.4453 131.463 89.6641C132.7 87.7839 133.615 85.3841 134.209 82.4648ZM240.404 43.0547V68.8828C240.404 75.8594 239.588 82.0195 237.955 87.3633C236.372 92.6576 234.071 97.0859 231.053 100.648C228.034 104.26 224.348 106.982 219.994 108.812C215.64 110.643 210.741 111.559 205.299 111.559C199.906 111.559 195.032 110.643 190.678 108.812C186.324 106.982 182.637 104.26 179.619 100.648C176.551 97.0859 174.176 92.6576 172.494 87.3633C170.861 82.0195 170.045 75.8594 170.045 68.8828V43.0547C170.045 36.0781 170.861 29.9427 172.494 24.6484C174.127 19.3047 176.477 14.8268 179.545 11.2148C182.563 7.65234 186.225 4.95573 190.529 3.125C194.883 1.29427 199.757 0.378906 205.15 0.378906C210.593 0.378906 215.491 1.29427 219.846 3.125C224.2 4.95573 227.911 7.65234 230.978 11.2148C233.997 14.8268 236.322 19.3047 237.955 24.6484C239.588 29.9427 240.404 36.0781 240.404 43.0547ZM190.826 56.4883V59.9766L219.623 38.5273C219.524 34.4701 219.079 31.0065 218.287 28.1367C217.545 25.2174 216.432 22.8919 214.947 21.1602C213.809 19.7747 212.399 18.7604 210.717 18.1172C209.084 17.4245 207.228 17.0781 205.15 17.0781C202.825 17.0781 200.771 17.5234 198.99 18.4141C197.258 19.2552 195.799 20.5417 194.611 22.2734C193.325 24.1042 192.36 26.4792 191.717 29.3984C191.123 32.3177 190.826 35.7812 190.826 39.7891V51.7383V56.4883ZM218.658 82.4648C219.301 79.4961 219.623 76.0078 219.623 72V59.457V55.8945V52.5547L190.826 73.9297C190.925 77.1953 191.247 80.0898 191.791 82.6133C192.385 85.1367 193.201 87.2396 194.24 88.9219C195.428 90.9505 196.937 92.4596 198.768 93.4492C200.598 94.4388 202.775 94.9336 205.299 94.9336C207.624 94.9336 209.678 94.513 211.459 93.6719C213.24 92.7812 214.725 91.4453 215.912 89.6641C217.149 87.7839 218.064 85.3841 218.658 82.4648ZM325.002 1.9375V110H304.22L274.162 40.3086V110H253.158V1.9375H274.162L303.998 71.332L304.072 1.9375H325.002ZM39.6662 229H0.256088V120.938H36.5491C42.4371 120.938 47.7808 121.531 52.5803 122.719C57.4293 123.906 61.5608 125.712 64.9748 128.137C68.3889 130.561 71.0113 133.629 72.842 137.34C74.7222 141.051 75.6623 145.43 75.6623 150.477C75.6129 153.742 75.0191 156.835 73.8811 159.754C72.7925 162.624 71.1597 165.147 68.9827 167.324C67.7952 168.512 66.4345 169.6 64.9006 170.59C63.4162 171.579 61.7587 172.421 59.928 173.113V173.188C63.4905 174.177 66.3108 175.439 68.3889 176.973C70.5165 178.507 72.2978 180.288 73.7327 182.316C75.217 184.493 76.3056 186.868 76.9983 189.441C77.7405 191.965 78.1116 194.587 78.1116 197.309C78.1116 202.504 77.2209 207.081 75.4397 211.039C73.6584 214.997 71.1103 218.312 67.7952 220.984C64.48 223.656 60.4475 225.66 55.6975 226.996C50.9475 228.332 45.6037 229 39.6662 229ZM40.6311 181.352H21.1858V212.152H39.7405C42.4618 212.152 44.8863 211.806 47.0139 211.113C49.191 210.421 50.997 209.48 52.4319 208.293C54.0152 206.957 55.2027 205.349 55.9944 203.469C56.8355 201.589 57.2561 199.486 57.2561 197.16C57.2561 194.736 56.9345 192.559 56.2912 190.629C55.6975 188.699 54.7327 187.066 53.3967 185.73C52.0608 184.345 50.329 183.281 48.2014 182.539C46.0738 181.797 43.5504 181.401 40.6311 181.352ZM21.1858 137.934V166.285H36.6975C39.8642 166.236 42.6597 165.865 45.0842 165.172C47.5087 164.43 49.4631 163.341 50.9475 161.906C52.1845 160.768 53.1246 159.383 53.7678 157.75C54.4605 156.117 54.8069 154.262 54.8069 152.184C54.8069 150.007 54.51 148.102 53.9162 146.469C53.372 144.836 52.5308 143.475 51.3928 142.387C49.9084 140.853 47.9045 139.74 45.3811 139.047C42.9071 138.354 39.9879 137.983 36.6233 137.934H21.1858ZM160.26 167.176V182.91C160.26 187.561 159.839 191.99 158.998 196.195C158.157 200.352 156.945 204.211 155.361 207.773C153.679 211.336 151.601 214.602 149.127 217.57C146.653 220.539 143.833 223.013 140.666 224.992C137.796 226.724 134.63 228.06 131.166 229C127.752 229.99 124.066 230.484 120.107 230.484C115.902 230.484 112.018 229.94 108.455 228.852C104.893 227.763 101.652 226.229 98.7325 224.25C95.8627 222.172 93.2898 219.673 91.0137 216.754C88.7377 213.785 86.8328 210.445 85.2989 206.734C83.9135 203.32 82.8497 199.609 82.1075 195.602C81.4148 191.594 81.0684 187.363 81.0684 182.91V167.176C81.0684 162.426 81.4643 157.923 82.2559 153.668C83.0971 149.413 84.3093 145.479 85.8927 141.867C87.4265 138.453 89.282 135.361 91.4591 132.59C93.6856 129.819 96.2338 127.444 99.1036 125.465C101.924 123.535 105.091 122.051 108.604 121.012C112.117 119.973 115.927 119.453 120.033 119.453C124.19 119.453 128.074 119.997 131.686 121.086C135.347 122.125 138.637 123.634 141.557 125.613C144.476 127.493 147.024 129.77 149.201 132.441C151.428 135.113 153.333 138.057 154.916 141.273C156.648 144.935 157.959 148.943 158.85 153.297C159.79 157.651 160.26 162.277 160.26 167.176ZM139.107 182.91V167.027C139.107 164.257 138.959 161.634 138.662 159.16C138.415 156.637 137.994 154.311 137.4 152.184C136.658 149.512 135.669 147.137 134.432 145.059C133.195 142.931 131.735 141.199 130.053 139.863C128.717 138.874 127.208 138.107 125.525 137.562C123.893 137.018 122.062 136.746 120.033 136.746C118.104 136.746 116.347 136.993 114.764 137.488C113.23 137.983 111.844 138.701 110.607 139.641C108.925 141.026 107.49 142.758 106.303 144.836C105.165 146.914 104.274 149.339 103.631 152.109C103.136 154.237 102.765 156.562 102.518 159.086C102.32 161.609 102.221 164.257 102.221 167.027V182.91C102.221 185.533 102.32 188.056 102.518 190.48C102.716 192.905 103.062 195.156 103.557 197.234C104.101 199.857 104.893 202.257 105.932 204.434C107.02 206.561 108.282 208.293 109.717 209.629C111.053 210.816 112.562 211.732 114.244 212.375C115.976 213.018 117.93 213.34 120.107 213.34C122.186 213.34 124.091 213.043 125.822 212.449C127.554 211.855 129.088 210.99 130.424 209.852C132.106 208.466 133.516 206.734 134.654 204.656C135.842 202.529 136.782 200.129 137.475 197.457C138.019 195.379 138.415 193.103 138.662 190.629C138.959 188.155 139.107 185.582 139.107 182.91ZM248.717 120.938V137.934H215.393V229H194.463V137.934H161.584V120.938H248.717ZM308.674 206.141C309.465 204.508 309.861 202.727 309.861 200.797C309.861 198.867 309.515 197.061 308.822 195.379C308.179 193.697 307.066 192.113 305.482 190.629C303.849 189.194 301.722 187.883 299.099 186.695C296.526 185.458 293.31 184.32 289.451 183.281C283.464 181.648 278.194 179.669 273.642 177.344C269.14 175.018 265.454 172.47 262.584 169.699C259.714 166.928 257.537 163.861 256.052 160.496C254.618 157.132 253.9 153.47 253.9 149.512C253.9 144.96 254.865 140.828 256.795 137.117C258.724 133.406 261.396 130.24 264.81 127.617C268.224 124.995 272.257 122.991 276.908 121.605C281.559 120.171 286.606 119.453 292.049 119.453C297.689 119.453 302.835 120.27 307.486 121.902C312.187 123.535 316.219 125.811 319.584 128.73C322.948 131.699 325.571 135.212 327.451 139.27C329.331 143.327 330.271 147.78 330.271 152.629H309.935C309.836 150.204 309.391 147.978 308.599 145.949C307.857 143.921 306.744 142.164 305.26 140.68C303.726 139.245 301.821 138.132 299.545 137.34C297.318 136.499 294.696 136.078 291.677 136.078C288.907 136.078 286.433 136.424 284.256 137.117C282.128 137.76 280.322 138.676 278.838 139.863C277.353 141.1 276.215 142.56 275.424 144.242C274.681 145.875 274.31 147.656 274.31 149.586C274.31 151.615 274.805 153.445 275.795 155.078C276.834 156.711 278.318 158.171 280.248 159.457C282.177 160.793 284.503 162.005 287.224 163.094C289.995 164.182 293.112 165.197 296.576 166.137C300.287 167.176 303.825 168.438 307.189 169.922C310.554 171.406 313.646 173.113 316.467 175.043C320.722 178.21 324.111 181.896 326.635 186.102C329.158 190.307 330.42 195.156 330.42 200.648C330.42 205.398 329.455 209.629 327.525 213.34C325.645 217.001 323.023 220.094 319.658 222.617C316.293 225.19 312.286 227.145 307.635 228.48C302.983 229.767 297.912 230.41 292.42 230.41C287.026 230.41 281.683 229.618 276.388 228.035C271.144 226.402 266.567 224.027 262.658 220.91C258.947 217.842 256.003 214.23 253.826 210.074C251.698 205.918 250.635 201.044 250.635 195.453H271.119C271.218 198.719 271.787 201.514 272.826 203.84C273.865 206.165 275.325 208.07 277.205 209.555C279.036 211.039 281.237 212.128 283.81 212.82C286.433 213.513 289.302 213.859 292.42 213.859C295.191 213.859 297.64 213.538 299.767 212.895C301.944 212.251 303.775 211.361 305.26 210.223C306.744 209.085 307.882 207.724 308.674 206.141Z" fill="white"/>
</svg>
